<svg xmlns="http://www.w3.org/2000/svg" viewBox="0 0 100 100" width="100" height="100">
  <defs>
    <linearGradient id="mythrilGradient" x1="0%" y1="0%" x2="100%" y2="100%">
      <stop offset="0%" style="stop-color:#7c3aed"/>
      <stop offset="100%" style="stop-color:#a78bfa"/>
    </linearGradient>
  </defs>
  <!-- Anvil base -->
  <path d="M20 75 L80 75 L85 85 L15 85 Z" fill="url(#mythrilGradient)"/>
  <!-- Anvil body -->
  <path d="M25 45 L75 45 L80 75 L20 75 Z" fill="url(#mythrilGradient)"/>
  <!-- Anvil horn -->
  <path d="M75 45 L95 50 L95 55 L80 55 L80 45 Z" fill="url(#mythrilGradient)"/>
  <!-- Anvil top -->
  <path d="M30 35 L70 35 L75 45 L25 45 Z" fill="url(#mythrilGradient)"/>
  <!-- Hammer -->
  <rect x="42" y="10" width="16" height="8" rx="2" fill="#fbbf24"/>
  <rect x="48" y="18" width="4" height="20" fill="#92400e"/>
  <!-- Spark effects -->
  <circle cx="35" cy="30" r="2" fill="#fbbf24"/>
  <circle cx="65" cy="25" r="1.5" fill="#fbbf24"/>
  <circle cx="28" cy="38" r="1" fill="#fbbf24"/>
  <circle cx="72" cy="32" r="1.5" fill="#fbbf24"/>
</svg>
